HIERARCHY
ROOT root
{
	OFFSET 0.000000 0.000000 0.000000
	CHANNELS 6 Xposition Yposition Zposition Zrotation Yrotation Xrotation
	JOINT lhip
	{
		OFFSET 0.058581 -0.082280 -0.017664
		CHANNELS 3 Zrotation Yrotation Xrotation
		JOINT lknee
		{
			OFFSET 0.043451 -0.386469 0.008037
			CHANNELS 3 Zrotation Yrotation Xrotation
			JOINT lankle
			{
				OFFSET -0.014790 -0.426874 -0.037428
				CHANNELS 3 Zrotation Yrotation Xrotation
				JOINT ltoe
				{
					OFFSET 0.041054 -0.060286 0.122042
					CHANNELS 3 Zrotation Yrotation Xrotation
					End Site
					{
						OFFSET 0.000000 0.000000 0.000000
					}
				}
			}
		}
	}
	JOINT rhip
	{
		OFFSET -0.060310 -0.090513 -0.013543
		CHANNELS 3 Zrotation Yrotation Xrotation
		JOINT rknee
		{
			OFFSET -0.043257 -0.383688 -0.004843
			CHANNELS 3 Zrotation Yrotation Xrotation
			JOINT rankle
			{
				OFFSET 0.019056 -0.420046 -0.034562
				CHANNELS 3 Zrotation Yrotation Xrotation
				JOINT rtoe
				{
					OFFSET -0.034840 -0.062106 0.130323
					CHANNELS 3 Zrotation Yrotation Xrotation
					End Site
					{
						OFFSET 0.000000 0.000000 0.000000
					}
				}
			}
		}
	}
	JOINT lowerback
	{
		OFFSET 0.004439 0.124404 -0.038385
		CHANNELS 3 Zrotation Yrotation Xrotation
		JOINT upperback
		{
			OFFSET 0.004488 0.137956 0.026820
			CHANNELS 3 Zrotation Yrotation Xrotation
			JOINT chest
			{
				OFFSET -0.002265 0.056032 0.002855
				CHANNELS 3 Zrotation Yrotation Xrotation
				JOINT lowerneck
				{
					OFFSET -0.013390 0.211636 -0.033468
					CHANNELS 3 Zrotation Yrotation Xrotation
					JOINT upperneck
					{
						OFFSET 0.010113 0.088937 0.050410
						CHANNELS 3 Zrotation Yrotation Xrotation
						End Site
						{
							OFFSET 0.000000 0.000000 0.000000
						}
					}
				}
				JOINT lclavicle
				{
					OFFSET 0.071702 0.114000 -0.018898
					CHANNELS 3 Zrotation Yrotation Xrotation
					JOINT lshoulder
					{
						OFFSET 0.122921 0.045205 -0.019046
						CHANNELS 3 Zrotation Yrotation Xrotation
						JOINT lelbow
						{
							OFFSET 0.255332 -0.015649 -0.022946
							CHANNELS 3 Zrotation Yrotation Xrotation
							JOINT lwrist
							{
								OFFSET 0.265709 0.012698 -0.007375
								CHANNELS 3 Zrotation Yrotation Xrotation
								End Site
								{
									OFFSET 0.000000 0.000000 0.000000
								}
							}
						}
					}
				}
				JOINT rclavicle
				{
					OFFSET -0.082954 0.112472 -0.023707
					CHANNELS 3 Zrotation Yrotation Xrotation
					JOINT rshoulder
					{
						OFFSET -0.113228 0.046853 -0.008472
						CHANNELS 3 Zrotation Yrotation Xrotation
						JOINT relbow
						{
							OFFSET -0.260127 -0.014369 -0.031269
							CHANNELS 3 Zrotation Yrotation Xrotation
							JOINT rwrist
							{
								OFFSET -0.269108 0.006794 -0.006027
								CHANNELS 3 Zrotation Yrotation Xrotation
								End Site
								{
									OFFSET 0.000000 0.000000 0.000000
								}
							}
						}
					}
				}
			}
		}
	}
}
MOTION
Frames: 7
Frame Time: 0.033333
0.322315 -1.331305 0.998151 -55.728553 5.586773 93.600651 6.153200 3.186462 -13.139071 -10.256884 -2.704856 24.399943 -3.024103 10.270238 -15.863001 0.000000 -0.000000 0.000000 -1.888139 -3.952785 -29.551521 6.245842 -8.759297 7.767094 3.740788 -9.103337 13.696576 0.000000 -0.000000 0.000000 -5.352417 1.805417 12.597042 3.198588 -0.883045 2.146885 1.863443 -0.067851 -3.355841 10.844427 -5.227104 -8.269936 13.246216 -10.264936 -1.427373 -25.278457 -5.165774 -1.370912 -50.738026 -12.027513 11.235286 20.924089 -9.337643 -22.044212 0.272835 -2.624241 13.790294 24.239374 12.830547 2.553135 47.813665 3.898331 9.942094 -8.412765 30.250811 -1.834035 2.520240 3.769022 11.038781 
0.330634 -1.327070 1.000082 -56.336312 5.750090 93.250724 5.672940 2.862551 -12.187518 -9.302099 -3.122672 21.757165 2.941602 12.991645 -16.442563 0.000000 -0.000000 0.000000 -2.468792 -3.743131 -28.986377 5.870554 -7.488338 10.672799 3.733178 -9.582169 9.971332 0.000000 -0.000000 0.000000 -5.727840 1.603893 13.231887 3.481096 -1.142913 2.069649 2.183940 -0.091384 -3.412393 10.375673 -6.022234 -8.043802 13.117366 -9.174359 -1.540126 -25.801352 -5.185406 -1.451785 -50.022143 -11.396596 9.643059 20.340865 -8.897298 -20.786118 -0.775568 -2.253713 13.992177 23.877306 11.397528 1.691992 47.604284 4.625514 9.115822 -5.771643 30.608246 2.513040 3.944136 3.201515 11.629612 
0.337279 -1.324003 1.001384 -56.990269 5.845065 92.750699 5.107151 2.324946 -10.638446 -7.942200 -3.246469 18.357038 9.526490 15.460227 -15.921676 0.000000 -0.000000 0.000000 -3.401826 -3.581703 -27.456260 5.529424 -7.814420 13.193459 3.506345 -10.986273 7.052880 0.000000 -0.000000 0.000000 -5.799445 1.506748 14.131018 3.492641 -1.275947 1.433668 2.114972 -0.099989 -3.310221 9.972453 -7.180868 -7.719574 13.487034 -7.699279 -1.350839 -25.551014 -4.674518 -1.567912 -50.282081 -11.218819 8.938722 20.354355 -8.947317 -19.383203 -2.319085 -1.485101 13.297544 23.298948 9.948557 1.580881 48.055902 5.619575 8.507599 -4.059651 30.592639 5.650407 6.031198 2.493675 12.108840 
0.344512 -1.318863 1.002350 -57.720036 6.354485 92.293000 5.576352 2.363493 -10.653280 -7.886051 -3.419238 17.874414 9.411785 16.182361 -14.734962 0.000000 -0.000000 0.000000 -4.582834 -3.933089 -24.908652 4.530508 -9.080897 17.885099 1.865077 -13.477884 1.767446 0.000000 -0.000000 0.000000 -5.006237 1.496612 14.117510 3.244901 -1.497660 0.632810 2.121394 -0.246857 -2.549232 9.352919 -7.797321 -6.912230 13.643229 -6.638639 -1.556650 -25.822097 -4.593252 -1.444226 -50.088128 -11.396204 7.916810 20.295619 -10.227397 -18.732192 -3.648480 -1.048498 12.324538 22.632961 8.318770 0.883643 48.135705 6.288007 7.346323 -1.177085 30.401348 9.371462 8.122411 1.452763 12.568458 
0.346559 -1.317077 1.002584 -57.977529 6.426477 92.153523 5.640781 2.383924 -10.619178 -7.878061 -3.500159 17.682204 9.260964 16.343138 -14.423340 0.000000 -0.000000 0.000000 -5.078990 -4.191275 -23.968471 4.194983 -9.441360 19.322263 1.589677 -14.302337 0.235589 0.000000 -0.000000 0.000000 -4.837705 1.525471 14.002758 3.175257 -1.568472 0.517610 2.090872 -0.267143 -2.413627 9.224332 -8.049217 -6.710597 13.717394 -6.356563 -1.538608 -25.848742 -4.592178 -1.393374 -50.053642 -11.559679 7.760093 20.216667 -10.720933 -18.551248 -4.092763 -0.925672 12.047195 22.506073 7.978852 0.770339 48.130463 6.388107 7.137393 -0.544791 30.405322 10.131293 8.705446 1.174746 12.602908 
0.350024 -1.313300 1.002928 -58.514689 6.467839 91.937839 5.681745 2.469283 -10.529873 -7.871520 -3.708676 17.211710 8.759294 16.535937 -13.830549 0.000000 -0.000000 0.000000 -6.108991 -4.890991 -22.060410 3.476607 -9.994638 21.980652 1.217131 -15.808760 -2.452514 0.000000 -0.000000 0.000000 -4.573728 1.603854 13.578871 3.029813 -1.720074 0.547265 2.005022 -0.181487 -2.390451 9.032718 -8.542736 -6.291470 13.824029 -5.914007 -1.447927 -25.971070 -4.768585 -1.246319 -49.875645 -11.980954 7.619761 19.948953 -11.818483 -18.180218 -4.229458 -0.985160 11.702765 22.330784 7.740703 0.741615 48.136975 6.319404 6.941900 0.155039 30.503536 11.018276 9.316468 0.870777 12.315189 
0.352766 -1.309158 1.003150 -59.120583 6.388814 91.740455 5.638452 2.641327 -10.394162 -7.821892 -3.848590 16.701709 8.280176 16.666525 -13.272711 0.000000 -0.000000 0.000000 -7.159924 -5.645866 -20.089489 2.807574 -10.187623 24.122739 0.977064 -17.017738 -4.498400 0.000000 -0.000000 0.000000 -4.452546 1.653537 13.063546 2.921455 -1.849918 0.754587 1.963844 0.126820 -2.600296 8.819824 -8.922614 -5.881015 13.695500 -5.631254 -1.221169 -26.236495 -5.185660 -1.027012 -49.564374 -12.481323 7.555716 19.591736 -13.040127 -17.758749 -3.593508 -1.327030 11.515356 22.144188 7.874342 0.916243 48.169355 6.151051 6.859556 0.361661 30.600241 11.572579 9.259778 0.749009 11.907582 
